<svg xmlns="http://www.w3.org/2000/svg" fill="none" viewBox="0 0 32 32"><defs><linearGradient id="gold-f" x1="0%" x2="100%" y1="0%" y2="100%"><stop offset="0%" stop-color="#c9a227"/><stop offset="100%" stop-color="#e8c547"/></linearGradient><linearGradient id="navy-f" x1="0%" x2="100%" y1="0%" y2="100%"><stop offset="0%" stop-color="#0c1b2e"/><stop offset="100%" stop-color="#162340"/></linearGradient></defs><rect width="32" height="32" fill="url(#navy-f)" rx="7"/><g><path fill="url(#gold-f)" d="M14 2 L26 6 L26 16 C26 21 21 25 14 27.5 C7 25 2 21 2 16 L2 6 Z" opacity=".1" transform="translate(2, 1.5)"/><path fill="none" stroke="url(#gold-f)" stroke-width="1.2" d="M14 2 L26 6 L26 16 C26 21 21 25 14 27.5 C7 25 2 21 2 16 L2 6 Z" transform="translate(2, 1.5)"/><g><path fill="url(#gold-f)" d="m5 11l1.5-4.5h11L19 11m-1.5 5a1.5 1.5 0 0 1-1.5-1.5a1.5 1.5 0 0 1 1.5-1.5a1.5 1.5 0 0 1 1.5 1.5a1.5 1.5 0 0 1-1.5 1.5m-11 0A1.5 1.5 0 0 1 5 14.5A1.5 1.5 0 0 1 6.5 13A1.5 1.5 0 0 1 8 14.5A1.5 1.5 0 0 1 6.5 16M18.92 6c-.2-.58-.76-1-1.42-1h-11c-.66 0-1.22.42-1.42 1L3 12v8a1 1 0 0 0 1 1h1a1 1 0 0 0 1-1v-1h12v1a1 1 0 0 0 1 1h1a1 1 0 0 0 1-1v-8z" transform="translate(2, 1.5) translate(4, 7.5) scale(0.85)"/></g></g></svg>