<svg xmlns="http://www.w3.org/2000/svg" fill="none" viewBox="0 0 64 64"><defs><linearGradient id="gold-i" x1="0%" x2="100%" y1="0%" y2="100%"><stop offset="0%" stop-color="#c9a227"/><stop offset="100%" stop-color="#e8c547"/></linearGradient><linearGradient id="navy-i" x1="0%" x2="100%" y1="0%" y2="100%"><stop offset="0%" stop-color="#0c1b2e"/><stop offset="100%" stop-color="#162340"/></linearGradient></defs><rect width="64" height="64" fill="url(#navy-i)" rx="14"/><g><path fill="url(#gold-i)" d="M28 3 L52 11 L52 30 C52 40 42 48 28 54 C14 48 4 40 4 30 L4 11 Z" opacity=".08" transform="translate(4, 3)"/><path fill="none" stroke="url(#gold-i)" stroke-width="1.8" d="M28 3 L52 11 L52 30 C52 40 42 48 28 54 C14 48 4 40 4 30 L4 11 Z" transform="translate(4, 3)"/><g><path fill="url(#gold-i)" d="m5 11l1.5-4.5h11L19 11m-1.5 5a1.5 1.5 0 0 1-1.5-1.5a1.5 1.5 0 0 1 1.5-1.5a1.5 1.5 0 0 1 1.5 1.5a1.5 1.5 0 0 1-1.5 1.5m-11 0A1.5 1.5 0 0 1 5 14.5A1.5 1.5 0 0 1 6.5 13A1.5 1.5 0 0 1 8 14.5A1.5 1.5 0 0 1 6.5 16M18.92 6c-.2-.58-.76-1-1.42-1h-11c-.66 0-1.22.42-1.42 1L3 12v8a1 1 0 0 0 1 1h1a1 1 0 0 0 1-1v-1h12v1a1 1 0 0 0 1 1h1a1 1 0 0 0 1-1v-8z" transform="translate(4, 3) translate(8, 13) scale(1.7)"/></g></g></svg>