<svg xmlns="http://www.w3.org/2000/svg" fill="none" viewBox="0 0 300 60"><defs><linearGradient id="gold-ar" x1="0%" x2="100%" y1="0%" y2="100%"><stop offset="0%" stop-color="#c9a227"/><stop offset="100%" stop-color="#e8c547"/></linearGradient></defs><g transform="translate(0, 0)"><text x="0" y="32" fill="#0c1b2e" font-family="'IBM Plex Sans Arabic', 'Outfit', system-ui, sans-serif" font-size="28" font-weight="700">اوتو<tspan fill="url(#gold-ar)"> سيف</tspan></text><text x="1" y="50" fill="#7a7062" font-family="'IBM Plex Sans Arabic', 'Source Serif 4', Georgia, serif" font-size="11" font-weight="400" letter-spacing="1">العناية بالسيارات</text><rect width="50" height="1.5" x="0" y="53" fill="url(#gold-ar)" rx=".75"/></g><g><path fill="url(#gold-ar)" d="M28 2 L54 11 L54 31 C54 42 43 50 28 56 C13 50 2 42 2 31 L2 11 Z" opacity=".1" transform="translate(132, 1)"/><path fill="none" stroke="url(#gold-ar)" stroke-width="2" d="M28 2 L54 11 L54 31 C54 42 43 50 28 56 C13 50 2 42 2 31 L2 11 Z" transform="translate(132, 1)"/><g><path fill="url(#gold-ar)" d="m5 11l1.5-4.5h11L19 11m-1.5 5a1.5 1.5 0 0 1-1.5-1.5a1.5 1.5 0 0 1 1.5-1.5a1.5 1.5 0 0 1 1.5 1.5a1.5 1.5 0 0 1-1.5 1.5m-11 0A1.5 1.5 0 0 1 5 14.5A1.5 1.5 0 0 1 6.5 13A1.5 1.5 0 0 1 8 14.5A1.5 1.5 0 0 1 6.5 16M18.92 6c-.2-.58-.76-1-1.42-1h-11c-.66 0-1.22.42-1.42 1L3 12v8a1 1 0 0 0 1 1h1a1 1 0 0 0 1-1v-1h12v1a1 1 0 0 0 1 1h1a1 1 0 0 0 1-1v-8z" transform="translate(132, 1) translate(9, 14) scale(1.6)"/></g></g></svg>